2<?xml version="1.0" standalone="no"?>
<svg viewBox="0 0 200 200" xmlns="http://www.w3.org/2000/svg">
  <path fill="#D2E603" d="M32.9,-62C41.2,-52.2,45.4,-40.4,52.5,-29.8C59.6,-19.1,69.5,-9.6,72.2,1.5C74.9,12.7,70.3,25.3,64.6,38.3C58.9,51.3,51.9,64.7,41,67.3C30,70,15,62,0.9,60.5C-13.3,59,-26.6,64,-36.2,60.6C-45.9,57.2,-51.9,45.3,-61,33.8C-70.1,22.3,-82.2,11.1,-86.3,-2.4C-90.5,-15.9,-86.6,-31.8,-76.1,-40.9C-65.5,-49.9,-48.5,-52.1,-34.7,-58.8C-20.9,-65.4,-10.5,-76.5,0.9,-78.1C12.3,-79.7,24.6,-71.8,32.9,-62Z" transform="translate(100 100)" />
</svg>
